<svg id="Layer_3" height="512" viewBox="0 0 512 512" width="512" xmlns="http://www.w3.org/2000/svg" data-name="Layer 3"><path d="m152 128v-32c-16 8-24 32-24 32l-112 40v56h95.466c-19.966 19.144-68.866 68.652-79.466 104-24 80 40 72 40 72h88s24-200 24-232-32-40-32-40z" fill="#f69038"/><path d="m512 8h-128l-104 72v96h81.739l43.371-80h106.89z" fill="#f4a56e"/><circle cx="452" cy="196" fill="#90e3f5" r="20"/><circle cx="228" cy="332" fill="#f69038" r="20"/><path d="m478.142 329.858 25.858 14.142-25.858 14.142-14.142 25.858-14.142-25.858-25.858-14.142 25.858-14.142 14.142-25.858z" fill="#f69038"/><path d="m70.142 49.858 25.858 14.142-25.858 14.142-14.142 25.858-14.142-25.858-25.858-14.142 25.858-14.142 14.142-25.858z" fill="#90e3f5"/><path d="m424 488h-192l24-64c4.556-11.39 16.044-16 28.311-16h85.368c13.248 0 26.514 3.31 30.321 16z" fill="#0f8ca8"/><path d="m192 504h-184l16-56c4.556-11.39 24.044-24 36.311-24h85.368c13.248 0 26.514 11.31 30.321 24z" fill="#f69038"/><path d="m279.98 408.2 8.02-80.2h80l8.028 80.283" fill="#90e3f5"/><path d="m328 176h-64v80h128v-80h-4.103" fill="#90e3f5"/><path d="m288 256h80v72h-80z" fill="#0f8ca8"/><path d="m371.598 93.68-51.598 10.32v44h48z" fill="#e28c52"/><path d="m8 400h200v24h-200z" fill="#7a3909"/><path d="m329.6 176c-15.464 0-29.6-12.536-29.6-28a28 28 0 0 1 28-28 30.808 30.808 0 0 1 20.592 8.52z" fill="#0f8ca8"/><path d="m288 256h80v16h-80z" fill="#232626" opacity=".2"/><path d="m264 176h24v80h-24z" fill="#fafcfc" opacity=".3"/><path d="m316.311 408h-32c-12.267 0-23.755 4.61-28.311 16l-24 64h32l24-64c4.556-11.39 16.044-16 28.311-16z" fill="#fafcfc" opacity=".3"/><path d="m151.428 165.029-14.855 5.941c2.148 5.37 7.307 22.795 2.985 32.112a9.417 9.417 0 0 1 -5.013 4.918h-118.545v16h120a8.012 8.012 0 0 0 2.53-.41 25.626 25.626 0 0 0 15.542-13.774c7.969-17.183-1.534-42.016-2.644-44.787z" fill="#7a3909" opacity=".2"/><path d="m152 104v-8c-16 8-24 32-24 32l-112 40v16l120-40c0-16 16-40 16-40z" fill="#fafcfc" opacity=".3"/><path d="m280 112 112-80h120v-24h-128l-104 72z" fill="#fafcfc" opacity=".3"/><path d="m128 224h-16.534c-19.966 19.144-68.866 68.652-79.466 104-18 60 13.5 70.5 30.375 72h9.625c-40-64 56-176 56-176z" fill="#232626" opacity=".2"/><path d="m72 440h100.259c-5.85-9.083-16.22-16-26.58-16h-85.368c-12.267 0-31.755 12.61-36.311 24l-16 56h32v-40c8-24 32-24 32-24z" fill="#232626" opacity=".2"/><path d="m392 176h-25.983l-34.417 24.653s12.4 15.934 36.4 5.267a85.331 85.331 0 0 0 24-15.679z" fill="#7a3909" opacity=".2"/><path d="m512 104h-16c-16 40-88 32-88 32l-16 32c-11.4 28.5-43.111 32.633-60.4 32.653a8.007 8.007 0 0 1 -7.474-10.972l43.874-109.681 72-48h72z" fill="#ffbe92"/><path d="m480 196a28 28 0 1 0 -28 28 28.031 28.031 0 0 0 28-28zm-40 0a12 12 0 1 1 12 12 12.013 12.013 0 0 1 -12-12z"/><path d="m228 360a28 28 0 1 0 -28-28 28.031 28.031 0 0 0 28 28zm0-40a12 12 0 1 1 -12 12 12.013 12.013 0 0 1 12-12z"/><path d="m208 88h16v16h-16z"/><path d="m448 432h16v16h-16z"/><path d="m0 254.012h16v16h-16z"/><path d="m507.839 336.981-23.8-13.019-13.018-23.8a8 8 0 0 0 -14.038 0l-13.018 23.8-23.8 13.019a8 8 0 0 0 0 14.037l23.8 13.019 13.018 23.8a8 8 0 0 0 14.038 0l13.018-23.8 23.8-13.019a8 8 0 0 0 0-14.037zm-33.539 14.143a8.006 8.006 0 0 0 -3.18 3.18l-7.12 13.024-7.123-13.028a8.006 8.006 0 0 0 -3.18-3.18l-13.025-7.12 13.025-7.124a8.006 8.006 0 0 0 3.18-3.18l7.123-13.024 7.123 13.024a8.006 8.006 0 0 0 3.18 3.18l13.025 7.124z"/><path d="m12.161 71.019 23.8 13.019 13.018 23.8a8 8 0 0 0 14.038 0l13.018-23.8 23.8-13.019a8 8 0 0 0 0-14.037l-23.8-13.019-13.018-23.8a8 8 0 0 0 -14.038 0l-13.018 23.8-23.8 13.019a8 8 0 0 0 0 14.037zm33.539-14.143a8.006 8.006 0 0 0 3.18-3.18l7.12-13.024 7.123 13.028a8.006 8.006 0 0 0 3.18 3.18l13.025 7.12-13.028 7.124a8.006 8.006 0 0 0 -3.18 3.18l-7.12 13.024-7.123-13.028a8.006 8.006 0 0 0 -3.18-3.18l-13.025-7.12z"/><path d="m379.446 1.423-104 72a8 8 0 0 0 -3.446 6.577v88h-8a8 8 0 0 0 -8 8v80a8 8 0 0 0 8 8h16v63.6l-7.371 73.7c-11.479 2.707-19.993 9.563-24.057 19.725-.021.054-.042.107-.063.162l-24 64a8 8 0 0 0 7.491 10.813h192a8 8 0 0 0 7.491-10.809l-23.913-63.768c-2.435-7.847-8.708-16.792-24.206-20.1l-7.372-73.723v-63.6h16a8 8 0 0 0 8-8v-80a7.956 7.956 0 0 0 -1.039-3.934c.11-.26.231-.512.338-.775l13.447-26.891c17.5 1.013 70.167 1.087 88.324-32.4h10.93v-16h-16a8 8 0 0 0 -7.428 5.029c-5.48 13.7-20.1 22.451-43.457 26.014a158.345 158.345 0 0 1 -36.232 1.006 8 8 0 0 0 -8.039 4.373l-16 32q-.149.3-.272.607c-9.6 23.992-37.313 27.605-53.017 27.623l42.945-107.374 69.933-46.622-8.875-13.312-72 48a8 8 0 0 0 -2.99 3.686l-4.651 11.628-37.49 7.5a8 8 0 0 0 -6.427 7.842v11.764a36.036 36.036 0 0 0 -20 32.236 34.373 34.373 0 0 0 6.548 20h-10.548v-83.809l98.5-68.191h125.5v-16h-128a8 8 0 0 0 -4.554 1.423zm-12.286 398.577h-78.32l6.4-64h65.52zm25.177 26.3q.078.258.172.51l19.947 53.19h-168.912l19.913-53.1c3.845-9.48 14.709-10.9 20.854-10.9h85.368c19.569 0 21.894 7.751 22.658 10.3zm-32.337-106.3h-64v-56h64zm-28.406-111.347h.017c9.059-.011 22.548-1.1 35.365-6.217a62.1 62.1 0 0 0 17.024-10.015v55.579h-112v-64h45.784l-1.084 2.711a16.007 16.007 0 0 0 14.894 21.942zm-3.594-98.094 20.827-4.165-3.93 9.825a37.986 37.986 0 0 0 -16.897-4.219zm0 17.441a22.5 22.5 0 0 1 10.918 3.165l-14.481 36.2c-9.202-2.265-16.437-10.345-16.437-19.365a20.023 20.023 0 0 1 20-20z"/><path d="m96 160h16v16h-16z"/><path d="m208 392h-38.989c4.716-39.709 22.989-195.426 22.989-224 0-26.056-18.466-40.216-32-45.746v-26.254a8 8 0 0 0 -11.578-7.155c-14.72 7.36-23.366 25.059-26.581 32.859l-108.532 38.762a8 8 0 0 0 -5.309 7.534v48a8 8 0 0 0 8 8h83.951c-22.9 22.5-65.383 67.6-75.613 101.7-8.875 29.583-7.4 51.88 4.372 66.3h-20.71a8 8 0 0 0 -8 8v24a8 8 0 0 0 8 8h18.122c-4.352 4.1-7.78 8.6-9.549 13.029a7.93 7.93 0 0 0 -.265.773l-16 56a8 8 0 0 0 7.692 10.198h184a8 8 0 0 0 7.692-10.2l-16-56-.03-.1a40.967 40.967 0 0 0 -7.289-13.7h31.627a8 8 0 0 0 8-8v-24a8 8 0 0 0 -8-8zm-166.638-9.792c-10.537-12.463-6.74-35.107-1.7-51.909 11.347-37.824 71.11-94.818 83.46-106.3h12.878a8.012 8.012 0 0 0 2.53-.41 25.626 25.626 0 0 0 15.542-13.774c7.969-17.183-1.535-42.012-2.645-44.786l-14.855 5.941c2.148 5.37 7.307 22.795 2.985 32.112a9.417 9.417 0 0 1 -5.012 4.918h-110.545v-34.362l106.691-38.1a8.029 8.029 0 0 0 4.894-4.991 71.47 71.47 0 0 1 8.415-16.4v13.853a8 8 0 0 0 6.06 7.761 42.289 42.289 0 0 1 13.14 6.639 30.536 30.536 0 0 1 12.8 25.6c0 12.638-3.9 52.7-8.551 96h-31.449v16h29.713c-1.18 10.771-2.381 21.557-3.558 32h-26.155v16h24.341c-3.245 28.456-6.09 52.585-7.445 64h-89.934c-6.562-.605-15.678-2.789-21.6-9.792zm126.96 68.043 13.072 45.749h-162.788l12.958-45.354c3.559-8.115 19.713-18.646 28.747-18.646h85.368c9.131 0 19.699 8.522 22.644 18.251zm31.678-34.251h-184v-8h184z"/></svg>